<?xml version="1.0" encoding="utf-8"?>
<!-- Generator: Adobe Illustrator 24.1.2, SVG Export Plug-In . SVG Version: 6.00 Build 0)  -->
<svg version="1.1" id="Capa_1" xmlns="http://www.w3.org/2000/svg" xmlns:xlink="http://www.w3.org/1999/xlink" x="0px" y="0px"
	 viewBox="0 0 48 48" style="enable-background:new 0 0 48 48;" xml:space="preserve">
<style type="text/css">
	.st0{fill-rule:evenodd;clip-rule:evenodd;fill:#E02F33;}
	.st1{fill:#8CBA30;}
	.st2{fill:#41A73C;}
	.st3{fill:#FFFFFF;}
</style>
<g>
	<path class="st0" d="M24.2,0.99c12.92,0,23.42,10.48,23.42,23.4c0,12.94-10.5,23.42-23.42,23.42c-12.94,0-23.42-10.48-23.42-23.42
		C0.78,11.47,11.26,0.99,24.2,0.99L24.2,0.99z M24.2,8.99c8.51,0,15.42,6.89,15.42,15.4c0,8.51-6.91,15.41-15.42,15.41
		c-8.51,0-15.42-6.91-15.42-15.41C8.78,15.88,15.69,8.99,24.2,8.99L24.2,8.99z"/>
	<g>
		<path class="st1" d="M43.63,34.28c-1.36,0.58-2.91-0.07-3.49-1.41c-0.56-1.36,0.07-2.91,1.41-3.49c1.36-0.56,2.91,0.07,3.49,1.43
			C45.62,32.15,44.97,33.72,43.63,34.28L43.63,34.28z"/>
		<g>
			<path class="st1" d="M35.71,18.76l0.02-0.02l2.46-1.03c0.03-0.02,0.07-0.02,0.1-0.03c-0.05-0.82,0.4-1.62,1.2-1.95
				c1.03-0.44,2.2,0.03,2.62,1.05c0.44,1.03-0.05,2.2-1.06,2.62c-0.8,0.35-1.69,0.1-2.25-0.51c-0.03,0.02-0.07,0.04-0.1,0.05
				l-2.44,1.03l-0.02,0.02c1.01,2.81,0.96,5.77,0.05,8.42l5.62,2.28c0.23,0.09,0.38,0.3,0.42,0.52c0.03,0.24-0.07,0.47-0.26,0.63
				c-0.17,0.14-0.44,0.17-0.66,0.09l-5.62-2.3c-1.19,2.55-3.23,4.69-5.91,6l0,0l0.78,1.87c0.82-0.03,1.62,0.42,1.95,1.22
				c0.44,1.01-0.05,2.18-1.06,2.62c-1.01,0.42-2.18-0.05-2.62-1.06c-0.33-0.8-0.1-1.69,0.51-2.25l-0.78-1.87l-0.02-0.02
				c-2.81,1.01-5.77,0.98-8.42,0.05v0.02l-1.26,3.07c0,0.03-0.02,0.05-0.03,0.09c0.37,0.26,0.68,0.65,0.87,1.1
				c0.58,1.34-0.07,2.91-1.41,3.47c-1.36,0.58-2.91-0.05-3.49-1.41c-0.58-1.34,0.07-2.91,1.41-3.47c0.47-0.19,0.94-0.26,1.4-0.19
				c0.02-0.04,0.02-0.05,0.03-0.07l1.26-3.09v-0.02c-2.53-1.19-4.69-3.23-5.98-5.91h-0.02l-2.46,1.03c-0.03,0.02-0.07,0.04-0.1,0.04
				c0.05,0.82-0.4,1.62-1.22,1.97c-1.01,0.42-2.18-0.05-2.6-1.06c-0.44-1.01,0.05-2.18,1.06-2.62c0.8-0.33,1.69-0.1,2.25,0.51
				c0.03-0.02,0.07-0.03,0.1-0.05l2.44-1.03h0.02c-1.01-2.82-0.98-5.77-0.05-8.42l-0.02-0.02l-3.07-1.26
				c-0.04,0-0.05-0.02-0.07-0.03C9,19.2,8.61,19.49,8.16,19.69c-1.34,0.58-2.91-0.07-3.47-1.41c-0.58-1.36,0.05-2.91,1.41-3.49
				c1.36-0.56,2.91,0.07,3.49,1.43c0.19,0.45,0.24,0.92,0.17,1.38c0.03,0.02,0.05,0.02,0.09,0.03l3.07,1.26h0.02
				c1.19-2.53,3.23-4.69,5.91-5.98v-0.02L16.3,6.82c-0.65,0-1.26-0.38-1.52-1.01c-0.35-0.84,0.03-1.81,0.89-2.18
				c0.84-0.35,1.81,0.05,2.18,0.89c0.26,0.63,0.1,1.33-0.33,1.8l2.55,6.05l0.02,0.02c2.81-1.01,5.77-0.96,8.41-0.05h0.02l1.26-3.09
				c0-0.02,0.02-0.05,0.03-0.07c-0.38-0.28-0.68-0.65-0.87-1.1C28.35,6.71,29,5.16,30.34,4.58C31.7,4.01,33.25,4.65,33.83,6
				c0.56,1.36-0.07,2.91-1.41,3.49c-0.47,0.19-0.94,0.24-1.4,0.17C31,9.69,31,9.71,30.99,9.75l-1.26,3.07v0.02
				C32.26,14.04,34.42,16.06,35.71,18.76L35.71,18.76z"/>
			<path class="st2" d="M30.53,28.18c-1.36,0.56-2.91-0.07-3.49-1.43c-0.56-1.34,0.07-2.89,1.43-3.47c1.34-0.58,2.91,0.07,3.47,1.41
				C32.52,26.05,31.89,27.6,30.53,28.18L30.53,28.18z"/>
			<path class="st2" d="M24.55,19.39c-1.01,0.42-2.18-0.05-2.6-1.06c-0.44-1.01,0.03-2.18,1.06-2.62c1.01-0.42,2.18,0.05,2.6,1.06
				C26.05,17.78,25.56,18.95,24.55,19.39L24.55,19.39z"/>
			<path class="st2" d="M24.92,35.01c-1.03,0.44-2.2-0.05-2.62-1.06c-0.44-1.01,0.05-2.18,1.06-2.6c1.01-0.44,2.18,0.03,2.62,1.06
				C26.4,33.43,25.93,34.59,24.92,35.01L24.92,35.01z"/>
			<path class="st2" d="M17.85,19.08c-0.03-0.09-0.05-0.17-0.05-0.26c0-0.09,0.02-0.17,0.04-0.26c0.03-0.07,0.09-0.14,0.16-0.21
				c0.05-0.05,0.12-0.1,0.21-0.14c0.16-0.07,0.35-0.07,0.51-0.02c0.09,0.05,0.16,0.09,0.21,0.16c0.19,0.19,0.26,0.47,0.16,0.72
				c-0.07,0.17-0.19,0.3-0.35,0.37c-0.09,0.04-0.17,0.05-0.26,0.05c-0.09,0-0.17-0.02-0.26-0.05
				C18.05,19.35,17.92,19.23,17.85,19.08L17.85,19.08z"/>
			<path class="st2" d="M14.23,28.7c-0.04-0.07-0.05-0.16-0.05-0.24c0-0.09,0.02-0.17,0.05-0.26c0.03-0.09,0.09-0.16,0.14-0.21
				c0.07-0.07,0.14-0.12,0.23-0.16c0.16-0.05,0.33-0.07,0.51,0c0.07,0.04,0.14,0.09,0.21,0.16c0.19,0.17,0.24,0.47,0.16,0.72
				c-0.07,0.16-0.21,0.3-0.37,0.37c-0.07,0.02-0.16,0.04-0.24,0.04c-0.09,0-0.17,0-0.26-0.04C14.44,29,14.3,28.86,14.23,28.7
				L14.23,28.7z"/>
			<path class="st2" d="M32.52,29.36c-0.03-0.09-0.05-0.17-0.05-0.26c0-0.09,0.02-0.17,0.05-0.24c0.03-0.09,0.09-0.16,0.14-0.21
				c0.07-0.07,0.14-0.12,0.21-0.16c0.17-0.07,0.35-0.07,0.52,0c0.07,0.04,0.14,0.09,0.21,0.14c0.19,0.19,0.24,0.47,0.16,0.73
				c-0.07,0.16-0.21,0.28-0.37,0.35c-0.09,0.03-0.17,0.05-0.26,0.05c-0.09,0-0.17-0.02-0.24-0.03
				C32.73,29.66,32.59,29.52,32.52,29.36L32.52,29.36z"/>
			<path class="st2" d="M19.34,33.09c-0.03-0.09-0.05-0.17-0.05-0.26c0-0.09,0.02-0.17,0.05-0.24c0.03-0.09,0.09-0.16,0.14-0.21
				c0.07-0.07,0.14-0.12,0.21-0.16c0.17-0.07,0.35-0.07,0.52,0c0.07,0.04,0.14,0.09,0.21,0.14c0.19,0.19,0.24,0.47,0.16,0.73
				c-0.07,0.16-0.21,0.28-0.37,0.35c-0.09,0.03-0.17,0.05-0.24,0.05c-0.1,0-0.17-0.02-0.26-0.04
				C19.55,33.39,19.41,33.25,19.34,33.09L19.34,33.09z"/>
			<path class="st2" d="M32.36,19.76c-1.01,0.42-2.18-0.05-2.6-1.06c-0.44-1.01,0.05-2.18,1.06-2.62c1.01-0.42,2.18,0.05,2.6,1.06
				C33.86,18.15,33.39,19.32,32.36,19.76L32.36,19.76z"/>
			<path class="st2" d="M26.37,14.05c-0.03-0.07-0.05-0.16-0.05-0.24c0-0.09,0.02-0.17,0.05-0.26c0.03-0.09,0.09-0.16,0.14-0.21
				c0.07-0.07,0.14-0.12,0.21-0.16c0.17-0.07,0.35-0.07,0.52,0c0.07,0.03,0.14,0.09,0.21,0.14c0.19,0.19,0.24,0.47,0.16,0.73
				c-0.07,0.16-0.21,0.28-0.37,0.35c-0.09,0.04-0.17,0.05-0.26,0.05c-0.09,0-0.17,0-0.24-0.03C26.56,14.35,26.44,14.21,26.37,14.05
				L26.37,14.05z"/>
			<path class="st2" d="M18.57,15.15c-0.03-0.09-0.05-0.17-0.05-0.26c0-0.09,0.02-0.17,0.03-0.26c0.05-0.07,0.09-0.14,0.16-0.21
				c0.05-0.05,0.14-0.1,0.21-0.14c0.16-0.07,0.35-0.07,0.51-0.02c0.09,0.05,0.16,0.09,0.23,0.16c0.17,0.19,0.24,0.47,0.14,0.71
				c-0.07,0.16-0.19,0.3-0.35,0.37c-0.09,0.04-0.17,0.05-0.26,0.05c-0.09,0-0.17-0.02-0.26-0.05
				C18.76,15.43,18.64,15.31,18.57,15.15L18.57,15.15z"/>
			<path class="st2" d="M16.76,25.14c-1.01,0.44-2.18-0.03-2.6-1.06c-0.44-1.01,0.03-2.18,1.06-2.6c1.01-0.44,2.18,0.05,2.6,1.06
				C18.26,23.56,17.78,24.73,16.76,25.14L16.76,25.14z"/>
			<path class="st2" d="M23.35,24.27c-0.68,0.3-1.45-0.03-1.73-0.7c-0.3-0.68,0.02-1.45,0.7-1.74c0.68-0.28,1.45,0.03,1.74,0.72
				C24.34,23.23,24.03,23.99,23.35,24.27L23.35,24.27z"/>
			<path class="st2" d="M34.07,24.67c-0.66,0.28-1.45-0.03-1.73-0.71c-0.28-0.66,0.04-1.45,0.72-1.73c0.66-0.3,1.45,0.04,1.73,0.7
				C35.07,23.61,34.75,24.38,34.07,24.67L34.07,24.67z"/>
			<path class="st2" d="M30.27,33.2c-0.66,0.28-1.45-0.04-1.73-0.72c-0.3-0.66,0.03-1.45,0.7-1.73c0.68-0.28,1.46,0.03,1.74,0.7
				C31.27,32.14,30.95,32.92,30.27,33.2L30.27,33.2z"/>
			<path class="st2" d="M23.14,27.18c-0.02-0.07-0.03-0.16-0.03-0.24c0-0.09,0.02-0.17,0.03-0.26c0.03-0.07,0.09-0.16,0.16-0.21
				c0.05-0.07,0.12-0.12,0.21-0.16c0.16-0.05,0.35-0.05,0.51,0c0.09,0.03,0.16,0.09,0.21,0.16c0.19,0.17,0.26,0.47,0.16,0.71
				c-0.07,0.16-0.19,0.3-0.37,0.37c-0.07,0.03-0.16,0.03-0.24,0.03c-0.09,0.02-0.17,0-0.26-0.03
				C23.35,27.48,23.23,27.36,23.14,27.18L23.14,27.18z"/>
			<path class="st2" d="M20.33,28.74c-0.66,0.28-1.45-0.03-1.73-0.72c-0.28-0.66,0.03-1.45,0.7-1.73c0.68-0.28,1.47,0.04,1.74,0.7
				C21.33,27.67,21.01,28.46,20.33,28.74L20.33,28.74z"/>
			<path class="st2" d="M27.5,20.8c-0.03-0.09-0.05-0.17-0.05-0.26c0-0.09,0.02-0.17,0.05-0.26c0.03-0.07,0.09-0.14,0.14-0.21
				c0.07-0.05,0.14-0.1,0.21-0.14c0.17-0.07,0.35-0.07,0.52-0.02c0.07,0.05,0.14,0.09,0.21,0.16c0.19,0.19,0.24,0.47,0.16,0.72
				c-0.07,0.17-0.21,0.3-0.37,0.37c-0.09,0.03-0.17,0.05-0.26,0.05c-0.09,0-0.17-0.02-0.24-0.05C27.71,21.08,27.57,20.96,27.5,20.8
				L27.5,20.8z"/>
		</g>
	</g>
	<g>
		<polygon class="st0" points="35.4,7.2 41.41,13.2 13,41.6 6.99,35.6 		"/>
		<path class="st3" d="M15.57,34l0.94-0.94c0.37,0.44,0.54,0.89,0.51,1.36c-0.04,0.49-0.26,0.94-0.72,1.38
			c-0.49,0.51-1.01,0.75-1.59,0.73c-0.58,0-1.12-0.26-1.6-0.75c-0.51-0.51-0.77-1.05-0.77-1.6c-0.02-0.58,0.23-1.1,0.7-1.59
			c0.45-0.44,0.91-0.68,1.38-0.72c0.47-0.05,0.92,0.12,1.36,0.49l-0.96,0.94c-0.16-0.14-0.33-0.21-0.51-0.21
			c-0.16,0.02-0.33,0.09-0.49,0.26c-0.19,0.19-0.26,0.4-0.23,0.65c0.05,0.23,0.21,0.49,0.51,0.78c0.28,0.28,0.54,0.44,0.78,0.47
			c0.24,0.03,0.47-0.03,0.66-0.24c0.16-0.14,0.23-0.31,0.24-0.49C15.79,34.35,15.72,34.17,15.57,34L15.57,34z M17.43,31.44
			c0.3,0.3,0.56,0.45,0.78,0.49c0.24,0.05,0.45-0.04,0.66-0.24c0.21-0.21,0.3-0.42,0.26-0.66c-0.05-0.23-0.21-0.49-0.51-0.78
			c-0.3-0.3-0.56-0.45-0.79-0.49c-0.23-0.05-0.45,0.04-0.66,0.24c-0.21,0.21-0.28,0.44-0.24,0.66
			C16.98,30.88,17.15,31.14,17.43,31.44L17.43,31.44z M16.44,32.43c-0.49-0.51-0.75-1.03-0.75-1.6c0-0.58,0.24-1.12,0.73-1.6
			c0.49-0.49,1.03-0.73,1.6-0.73c0.58,0,1.1,0.26,1.6,0.75c0.51,0.51,0.75,1.05,0.75,1.62c0.02,0.58-0.23,1.1-0.71,1.59
			c-0.51,0.51-1.03,0.75-1.6,0.73C17.49,33.18,16.94,32.94,16.44,32.43L16.44,32.43z M18.29,27.51l1.01-1.01l2.51,1.46l-1.43-2.55
			l0.96-0.96l2.04,4.1l-0.98,0.98L18.29,27.51z M24.76,27.18l-3.07-3.07l1.01-1.01l3.07,3.07L24.76,27.18z M26.57,23.82l0.26-0.26
			c0.24-0.26,0.37-0.47,0.35-0.68c-0.02-0.21-0.16-0.45-0.44-0.73c-0.28-0.28-0.52-0.44-0.73-0.45c-0.23-0.02-0.44,0.1-0.68,0.33
			l-0.28,0.28L26.57,23.82z M26.36,25.58l-3.07-3.07l1.2-1.2c0.3-0.3,0.54-0.51,0.72-0.63c0.17-0.12,0.35-0.21,0.52-0.24
			c0.33-0.09,0.66-0.09,0.99,0.03c0.33,0.12,0.66,0.35,0.99,0.68c0.35,0.35,0.58,0.7,0.68,1.08c0.1,0.37,0.09,0.73-0.05,1.12
			c-0.05,0.14-0.16,0.3-0.28,0.47c-0.14,0.16-0.37,0.42-0.7,0.75L26.36,25.58z M28.96,21.48l-0.8-0.8l1.08-1.08l0.8,0.8L28.96,21.48
			z M32.1,19.84l-1.74-1.74l-0.66,0.68l-0.63-0.63c0.28-0.28,0.44-0.54,0.47-0.77c0.03-0.23-0.03-0.47-0.23-0.73l0.68-0.68l2.98,3
			L32.1,19.84z M33.57,14.38c-0.14-0.12-0.26-0.17-0.42-0.19c-0.14,0-0.26,0.07-0.4,0.19c-0.12,0.12-0.17,0.24-0.17,0.4
			c0,0.14,0.07,0.26,0.19,0.38c0.12,0.14,0.26,0.21,0.4,0.21c0.14,0,0.28-0.07,0.38-0.19c0.12-0.12,0.19-0.24,0.19-0.4
			C33.74,14.64,33.69,14.5,33.57,14.38L33.57,14.38z M34.35,15.11c-0.02,0.16-0.05,0.3-0.12,0.45c-0.09,0.16-0.19,0.3-0.33,0.44
			c-0.31,0.31-0.65,0.47-1.01,0.49c-0.37,0-0.7-0.14-1.01-0.44c-0.31-0.33-0.47-0.7-0.45-1.12c0.03-0.42,0.24-0.8,0.63-1.19
			c0.44-0.45,0.91-0.66,1.4-0.63c0.51,0.03,1.01,0.31,1.52,0.84c0.51,0.51,0.77,1.01,0.82,1.52c0.03,0.52-0.16,0.99-0.58,1.41
			c-0.33,0.33-0.66,0.51-1.01,0.58c-0.35,0.05-0.68-0.02-1.01-0.23l0.78-0.85c0.1,0.07,0.21,0.09,0.31,0.07
			c0.1-0.02,0.19-0.09,0.3-0.17c0.14-0.14,0.19-0.31,0.16-0.51C34.7,15.59,34.56,15.36,34.35,15.11L34.35,15.11z"/>
	</g>
</g>
</svg>
