<?xml version="1.0" encoding="utf-8"?>
<!-- Generator: Adobe Illustrator 24.1.2, SVG Export Plug-In . SVG Version: 6.00 Build 0)  -->
<svg version="1.1" id="Capa_1" xmlns="http://www.w3.org/2000/svg" xmlns:xlink="http://www.w3.org/1999/xlink" x="0px" y="0px"
	 viewBox="0 0 464 127" style="enable-background:new 0 0 464 127;" xml:space="preserve">
<style type="text/css">
	.st0{fill:#0067B0;}
	.st1{fill:#71B463;}
</style>
<g>
	<g>
		<path class="st0" d="M65.49,60.96v65.4h-10.9v-54.5h-21.8c-14.53,0-21.8,7.27-21.8,21.8c0,14.53,7.27,21.8,21.8,21.8h10.9v10.9
			h-10.9c-21.8,0-32.7-10.9-32.7-32.7s10.9-32.7,32.7-32.7H65.49z"/>
		<path class="st0" d="M87.29,93.65v32.7h-10.9v-32.7c0-21.8,7.27-32.7,21.8-32.7c7.27,0,12.72,2.72,16.35,8.17
			c3.63-5.45,9.08-8.17,16.35-8.17c14.53,0,21.8,10.9,21.8,32.7v32.7h-10.9v-32.7c0-14.53-3.63-21.8-10.9-21.8
			c-7.27,0-10.9,7.27-10.9,21.8v32.7h-10.9v-32.7v-1.04c-0.18-13.84-3.81-20.76-10.9-20.76C90.92,71.86,87.29,79.12,87.29,93.65z"/>
		<path class="st0" d="M163.58,93.65c0-21.8,10.9-32.7,32.7-32.7s32.7,10.9,32.7,32.7s-10.9,32.7-32.7,32.7
			S163.58,115.45,163.58,93.65z M174.48,93.65c0,14.53,7.27,21.8,21.8,21.8c14.53,0,21.8-7.27,21.8-21.8
			c0-14.53-7.27-21.8-21.8-21.8C181.75,71.86,174.48,79.12,174.48,93.65z"/>
		<path class="st0" d="M250.78,93.65v32.7h-10.9v-32.7c0-21.8,10.9-32.7,32.7-32.7c21.8,0,32.7,10.9,32.7,32.7v32.7h-10.9v-32.7
			c0-14.53-7.27-21.8-21.8-21.8C258.05,71.86,250.78,79.12,250.78,93.65z"/>
		<path class="st0" d="M327.08,60.96v65.4h-10.9v-65.4H327.08z"/>
		<path class="st0" d="M337.98,93.65c0-21.8,10.9-32.7,32.7-32.7c21.8,0,32.7,10.9,32.7,32.7s-10.9,32.7-32.7,32.7
			C348.87,126.35,337.98,115.45,337.98,93.65z M348.87,93.65c0,14.53,7.27,21.8,21.8,21.8c14.53,0,21.8-7.27,21.8-21.8
			c0-14.53-7.27-21.8-21.8-21.8C356.14,71.86,348.87,79.12,348.87,93.65z"/>
	</g>
	<g>
		<g>
			<path class="st0" d="M433.6,13.91c-10.41,39.97-52.68,41.07-52.68,41.07s0,0,0-12.08c0-2.02,0.26-4.15,1.08-6
				c1.08-2.4,2.68-4.27,4.94-5.64c1.67-1.01,3.63-1.5,5.56-1.51c1.87-0.01,3.75,0,5.62,0c2.69,0,5.38,0,8.06,0c1.36,0,2.71,0,4.07,0
				C410.26,29.75,424.93,30.72,433.6,13.91"/>
			<path class="st1" d="M410.11,45.91c12.23-7.43,24.01-20.95,25.6-45.5h-17.08c0,0-8.37-0.77-8.37,8.37s0,20.97,0,20.97
				L410.11,45.91"/>
		</g>
		<g>
			<path class="st0" d="M411.23,71.07C421.64,31.1,463.91,30,463.91,30s0,0,0,12.08c0,2.02-0.26,4.15-1.08,6
				c-1.08,2.4-2.68,4.27-4.94,5.64c-1.67,1.01-3.63,1.5-5.56,1.51c-1.87,0.01-3.75,0-5.62,0c-2.69,0-5.38,0-8.06,0
				c-1.36,0-2.71,0-4.07,0C434.57,55.23,419.91,54.26,411.23,71.07"/>
			<path class="st1" d="M434.72,39.07c-12.23,7.43-24.01,20.95-25.6,45.5h17.08c0,0,8.37,0.77,8.37-8.37s0-20.97,0-20.97
				L434.72,39.07"/>
		</g>
	</g>
</g>
</svg>
